<?xml version="1.0" encoding="utf-8"?>
<svg version="1.1" xmlns:xlink="http://www.w3.org/1999/xlink" width="300px" height="170px" xmlns="http://www.w3.org/2000/svg">
  <g transform="matrix(1 0 0 1 -640 0 )">
    <path d="M 640 0  L 940 0  L 940 170  L 640 170  L 640 0  " fill-rule="nonzero" fill="#cccccc" stroke="none" />
    <path d="M 652 12  L 928 12  L 928 158  L 652 158  L 652 12  " fill-rule="nonzero" fill="#ffffff" stroke="none" />
    <path d="M 808.75 51  C 801.61 51  796 45.39  796 38.25  C 796 31.11  801.61 25.5  808.75 25.5  C 815.89 25.5  821.5 31.11  821.5 38.25  C 821.5 45.39  815.89 51  808.75 51  " fill-rule="nonzero" fill="#cccccc" stroke="none" />
    <path d="M 657 154  L 657 78.65  L 723.75 44.4  L 817.2 107.42  L 870.6 64.95  L 924 107.42  L 924 154  L 657 154  " fill-rule="nonzero" fill="#169bd5" stroke="none" />
  </g>
</svg>